<svg xmlns="http://www.w3.org/2000/svg" fill="none" viewBox="0 0 370 122">
  <path fill="#B0AEB8" d="M91 43.2H47.8V56h30.6c-1.5 18-16.5 25.6-30.6 25.6C29.7 81.6 14 67.4 14 47.5c0-19.4 15-34.3 33.8-34.3 14.5 0 23.1 9.3 23.1 9.3l9-9.3S68.4.4 47.4.4C20.7.4 0 23 0 47.3c0 23.9 19.5 47.2 48.1 47.2 25.2 0 43.6-17.3 43.6-42.8 0-5.4-.7-8.5-.7-8.5ZM126.3 33.9c-17.7 0-30.4 13.9-30.4 30 0 16.4 12.3 30.5 30.6 30.5 16.6 0 30.1-12.7 30.1-30.1.1-20.1-15.7-30.4-30.3-30.4Zm.2 11.9c8.7 0 17 7 17 18.4 0 11.1-8.2 18.4-17 18.4-9.7 0-17.3-7.7-17.3-18.4 0-10.6 7.5-18.4 17.3-18.4ZM192.5 33.9c-17.7 0-30.4 13.9-30.4 30 0 16.4 12.3 30.5 30.6 30.5 16.6 0 30.1-12.7 30.1-30.1 0-20.1-15.8-30.4-30.3-30.4Zm.2 11.9c8.7 0 17 7 17 18.4 0 11.1-8.2 18.4-17 18.4-9.7 0-17.3-7.7-17.3-18.4-.1-10.6 7.5-18.4 17.3-18.4ZM257.3 33.9c-16.3 0-29 14.2-29 30.2 0 18.2 14.8 30.3 28.8 30.3 8.6 0 13.2-3.4 16.6-7.4v6c0 10.4-6.3 16.7-15.9 16.7-9.2 0-13.9-6.9-15.5-10.8l-11.6 4.9c4.1 8.7 12.4 17.8 27.2 17.8 16.2 0 28.5-10.2 28.5-31.5V35.7h-12.7v5.1c-3.9-4.1-9.3-6.9-16.4-6.9Zm1.2 11.9c8 0 16.2 6.8 16.2 18.4 0 11.8-8.2 18.3-16.3 18.3-8.7 0-16.7-7-16.7-18.2-.1-11.6 8.3-18.5 16.8-18.5ZM342.7 33.9c-15.3 0-28.2 12.2-28.2 30.2 0 19.1 14.4 30.4 29.7 30.4 12.8 0 20.7-7 25.3-13.3l-10.5-7c-2.7 4.2-7.3 8.3-14.8 8.3-8.5 0-12.4-4.7-14.8-9.2L370 56.5l-2.1-4.9c-3.9-9.7-13.1-17.7-25.2-17.7Zm.6 11.6c5.5 0 9.5 2.9 11.2 6.5l-27.1 11.3c-1.2-8.8 7.1-17.8 15.9-17.8ZM295.2 3.5h13.3v89.2h-13.3V3.5Z"/>
</svg>