<svg version="1.1" xmlns="http://www.w3.org/2000/svg" x="0" y="0" viewBox="0 0 1163.57 237.29" xml:space="preserve"><g id="Logotype"><g id="Wordmark"><path fill="#bdb7ca" d="M661.49 88.06H614.3v5.01c14.76 0 17.14 3.16 17.14 21.88v33.75c0 18.72-2.37 22.15-17.14 22.15-11.33-1.58-18.98-7.65-29.53-19.25l-12.13-13.18c16.34-2.9 25.04-13.18 25.04-24.79 0-14.5-12.39-25.57-35.59-25.57h-46.4v5.01c14.76 0 17.14 3.16 17.14 21.88v33.75c0 18.72-2.37 22.15-17.14 22.15v5.01h52.47v-5.01c-14.76 0-17.14-3.43-17.14-22.15v-9.49h4.48l29.26 36.64h76.72c37.7 0 54.05-20.03 54.05-44.03.01-23.98-16.34-43.76-54.04-43.76zm-110.46 42.97V95.97h10.81c11.86 0 17.14 8.17 17.14 17.66 0 9.23-5.27 17.4-17.14 17.4h-10.81zm111.25 36.65h-1.85c-9.49 0-10.81-2.37-10.81-14.5V95.97h12.65c27.42 0 32.43 20.03 32.43 35.59.01 16.09-5 36.12-32.42 36.12zM368.85 140.79L387.04 87c5.27-15.55 2.9-20.03-13.97-20.03V61.7h49.57v5.27c-16.61 0-20.56 3.95-27.16 23.2l-30.06 90.17H362l-26.9-82.52-27.42 82.52h-3.43l-29.26-90.17c-6.33-19.25-10.55-23.2-25.84-23.2V61.7h58.53v5.27c-15.56 0-19.78 3.69-14.24 20.03l17.66 53.79 26.63-79.1h5.01l26.11 79.1zM458.48 179.28c-29 0-52.73-21.35-52.73-47.46 0-25.84 23.73-47.19 52.73-47.19 29 0 52.73 21.36 52.73 47.19 0 26.11-23.72 47.46-52.73 47.46zm0-86.47c-24.25 0-32.69 21.88-32.69 39.02 0 17.4 8.44 39.02 32.69 39.02 24.52 0 32.96-21.62 32.96-39.02 0-17.14-8.43-39.02-32.96-39.02zM780.66 170.58v5.27h-60.37v-5.27c17.66 0 20.83-4.48 20.83-30.85V97.55c0-26.37-3.16-30.58-20.83-30.58V61.7h54.57c27.16 0 42.19 13.98 42.19 32.7 0 18.19-15.03 32.43-42.19 32.43h-15.03v12.92c0 26.35 3.16 30.83 20.83 30.83zm-5.8-99.39h-15.03v45.88h15.03c14.77 0 21.62-10.28 21.62-22.67-.01-12.66-6.86-23.21-21.62-23.21zM998.16 151.08l-1.32 4.75c-2.37 8.7-5.27 11.86-23.99 11.86h-3.69c-13.71 0-16.08-3.16-16.08-21.88v-12.13c20.56 0 22.15 1.84 22.15 15.55h5.01v-39.28h-5.01c0 13.71-1.58 15.55-22.15 15.55V95.97h14.5c18.72 0 21.62 3.16 23.99 11.86l1.32 5.01h4.22l-1.84-24.78h-77.51v5.01c14.76 0 17.14 3.16 17.14 21.88v33.75c0 17.12-2.02 21.44-13.66 22.05-11.06-1.69-18.66-7.72-29.05-19.15l-12.13-13.18c16.35-2.9 25.05-13.18 25.05-24.79 0-14.5-12.39-25.57-35.59-25.57h-46.4v5.01c14.76 0 17.14 3.16 17.14 21.88v33.75c0 18.72-2.37 22.15-17.14 22.15v5.01h52.47v-5.01c-14.76 0-17.14-3.43-17.14-22.15v-9.49h4.48l29.26 36.64h108.36l1.58-24.78h-3.97zm-139.73-20.05V95.97h10.81c11.86 0 17.14 8.17 17.14 17.66 0 9.23-5.27 17.4-17.14 17.4h-10.81zM1051.68 179.28c-10.55 0-19.78-5.54-23.73-8.96-1.32 1.32-3.69 5.27-4.22 8.96h-5.01V142.9h5.27c2.11 17.4 14.24 27.68 29.79 27.68 8.44 0 15.29-4.75 15.29-12.65 0-6.85-6.07-12.13-16.87-17.14l-15.03-7.12c-10.55-5.01-18.46-13.71-18.46-25.31 0-12.65 11.86-23.46 28.21-23.46 8.7 0 16.08 3.16 20.56 6.85 1.32-1.06 2.63-3.96 3.43-7.12h5.01v31.11h-5.54c-1.85-12.39-8.7-22.68-22.67-22.68-7.38 0-14.24 4.22-14.24 10.81 0 6.85 5.54 10.54 18.19 16.34l14.5 7.12c12.66 6.06 17.66 15.82 17.66 23.73.03 16.62-14.47 28.22-32.14 28.22zM1131.4 179.28c-10.55 0-19.78-5.54-23.73-8.96-1.32 1.32-3.69 5.27-4.22 8.96h-5.01V142.9h5.27c2.11 17.4 14.24 27.68 29.79 27.68 8.44 0 15.29-4.75 15.29-12.65 0-6.85-6.07-12.13-16.87-17.14l-15.03-7.12c-10.55-5.01-18.46-13.71-18.46-25.31 0-12.65 11.86-23.46 28.21-23.46 8.7 0 16.08 3.16 20.56 6.85 1.32-1.06 2.63-3.96 3.43-7.12h5.01v31.11h-5.54c-1.85-12.39-8.7-22.68-22.67-22.68-7.38 0-14.24 4.22-14.24 10.81 0 6.85 5.54 10.54 18.19 16.34l14.5 7.12c12.66 6.06 17.66 15.82 17.66 23.73.03 16.62-14.47 28.22-32.14 28.22z"/></g><g id="W_Mark"><path fill="#bdb7ca" d="M118.64 7.12c15.06 0 29.66 2.95 43.41 8.76 6.61 2.79 12.98 6.25 18.94 10.28a112.125 112.125 0 0130.13 30.13c4.03 5.96 7.49 12.33 10.28 18.94 5.81 13.74 8.76 28.35 8.76 43.41s-2.95 29.66-8.76 43.41c-2.79 6.61-6.25 12.98-10.28 18.94a112.125 112.125 0 01-30.13 30.13c-5.96 4.03-12.33 7.49-18.94 10.28-13.74 5.81-28.35 8.76-43.41 8.76-15.06 0-29.66-2.95-43.41-8.76-6.61-2.79-12.98-6.25-18.94-10.28a112.125 112.125 0 01-30.13-30.13c-4.03-5.96-7.49-12.33-10.28-18.94-5.81-13.74-8.76-28.35-8.76-43.41s2.95-29.66 8.76-43.41c2.79-6.61 6.25-12.98 10.28-18.94a112.125 112.125 0 0130.13-30.13c5.96-4.03 12.33-7.49 18.94-10.28 13.75-5.81 28.36-8.76 43.41-8.76m0-7.12C53.12 0 0 53.12 0 118.64c0 65.53 53.12 118.64 118.64 118.64 65.53 0 118.64-53.12 118.64-118.64C237.29 53.12 184.17 0 118.64 0z"/><path fill="#bdb7ca" d="M19.77 118.64c0 39.13 22.74 72.95 55.72 88.98L28.34 78.4a98.473 98.473 0 00-8.57 40.24zm165.62-4.99c0-12.22-4.39-20.68-8.15-27.27-5.01-8.15-9.71-15.04-9.71-23.19 0-9.09 6.89-17.55 16.6-17.55.44 0 .85.05 1.28.08-17.59-16.12-41.03-25.96-66.77-25.96-34.54 0-64.93 17.72-82.61 44.56 2.32.07 4.51.12 6.36.12 10.34 0 26.35-1.26 26.35-1.26 5.33-.31 5.96 7.52.63 8.15 0 0-5.36.63-11.31.94l36 107.09 21.64-64.89-15.4-42.2c-5.33-.31-10.37-.94-10.37-.94-5.33-.31-4.71-8.46.63-8.15 0 0 16.32 1.26 26.04 1.26 10.34 0 26.35-1.26 26.35-1.26 5.33-.31 5.96 7.52.63 8.15 0 0-5.36.63-11.31.94L168 178.56l10.2-32.32c4.53-14.12 7.19-24.13 7.19-32.59zm-65.01 13.64l-29.67 86.2a98.688 98.688 0 0027.93 4.03c11.51 0 22.56-1.99 32.83-5.61a9.18 9.18 0 01-.71-1.36l-30.38-83.26zm85.03-56.08c.42 3.15.66 6.53.66 10.17 0 10.03-1.88 21.31-7.52 35.41l-30.2 87.31c29.39-17.14 49.16-48.98 49.16-85.46 0-17.19-4.39-33.35-12.1-47.43z"/></g></g></svg>